<svg width="16" height="22" viewBox="0 0 16 22" fill="none" xmlns="http://www.w3.org/2000/svg">
<path d="M12.773 20.8339H3.20129V22H12.773V20.8339Z" fill="#E41F27"/>
<path d="M12.773 20.2763H3.20129V18.2526C4.54725 19.2408 6.20628 19.8264 8.00045 19.8264C9.78311 19.8264 11.4323 19.2476 12.773 18.2708V20.2763Z" fill="#E41F27"/>
<path d="M10.8641 1.45984C10.8641 0.654827 11.5192 0 12.3233 0C13.1291 0 13.7836 0.655397 13.7836 1.45984V9.31761L10.8641 6.49652V5.90698V5.09144V1.45984Z" fill="#E41F27"/>
<path d="M8.84694 5.37051C9.39359 5.37051 9.89284 5.68043 10.1423 6.16375C10.0828 6.17127 10.0251 6.19305 9.97944 6.23879C8.73155 7.48679 8.73155 9.51614 9.97944 10.764L10.2713 11.0559C10.1253 11.7202 9.5291 12.2009 8.84694 12.2009C8.04115 12.2009 7.38654 11.5457 7.38654 10.7411V9.61825V6.83066C7.38654 6.02487 8.04115 5.37051 8.84694 5.37051Z" fill="#E41F27"/>
<path d="M11.4206 12.208C11.4086 12.2064 11.3978 12.2014 11.3857 12.2014H10.2266C10.4341 12.0054 10.6056 11.7707 10.7161 11.4996L11.4243 12.2085C11.4228 12.208 11.4217 12.208 11.4206 12.208Z" fill="#E41F27"/>
<path d="M5.36921 5.37051C6.17427 5.37051 6.82874 6.02565 6.82874 6.83004V9.61768C6.82874 10.4231 6.17375 11.0777 5.36921 11.0777C4.56404 11.0777 3.90958 10.4224 3.90958 9.61768V6.83004C3.90932 6.02487 4.56404 5.37051 5.36921 5.37051Z" fill="#E41F27"/>
<path d="M1.89158 2.53873C2.69727 2.53873 3.35184 3.19381 3.35184 3.99831V6.82977V9.61736C3.35184 10.73 4.25673 11.6346 5.36896 11.6346C5.95097 11.6346 6.476 11.3874 6.84446 10.9916C6.90352 11.4647 7.12875 11.8868 7.45805 12.2003H2.92255C2.76832 12.2003 2.6438 12.3247 2.6438 12.4791C2.6438 12.6327 2.76837 12.7579 2.92255 12.7579H10.3296L7.8625 14.1574C7.72897 14.2328 7.68188 14.4035 7.75739 14.5366C7.80925 14.627 7.90264 14.6776 8.00024 14.6776C8.04676 14.6776 8.09416 14.6662 8.13746 14.6417L11.5227 12.7203C11.5334 12.7142 11.5398 12.7045 11.5492 12.6974C11.5655 12.6855 11.5802 12.674 11.5933 12.6593C11.6053 12.6457 11.6129 12.6316 11.6222 12.6164C11.6309 12.6017 11.6398 12.5864 11.6462 12.569C11.6521 12.551 11.6544 12.5319 11.6576 12.5129C11.6587 12.5012 11.6641 12.4906 11.6641 12.4783C11.6641 12.4727 11.6609 12.4683 11.6609 12.4628C11.6603 12.4568 11.6631 12.4508 11.662 12.4454L12.8544 13.6372C12.9085 13.6916 12.9802 13.7189 13.0514 13.7189C13.1228 13.7189 13.1941 13.6916 13.2486 13.6372C13.3579 13.5282 13.3579 13.3525 13.2486 13.2429L10.3741 10.3691C9.36243 9.35724 9.34692 7.72398 10.3221 6.6898C10.3237 6.69566 10.3237 6.70095 10.3259 6.70681C10.3277 6.71215 10.3272 6.71853 10.3293 6.72382C10.3325 6.72968 10.3375 6.73445 10.3403 6.74016C10.3539 6.76723 10.3694 6.79269 10.3912 6.81375C10.3917 6.81427 10.3923 6.81509 10.3928 6.81608L15.5673 11.8164C15.5336 14.0585 14.5201 16.0662 12.9365 17.4317C12.893 17.4522 12.8584 17.4848 12.8304 17.5234C11.5193 18.6129 9.83523 19.2696 8.00138 19.2696C3.8278 19.2696 0.432939 15.8738 0.432939 11.7015V10.4316V3.99882C0.432005 3.19381 1.08662 2.53873 1.89158 2.53873Z" fill="#E41F27"/>
</svg>
