<svg width="19" height="19" viewBox="0 0 19 19" fill="none" xmlns="http://www.w3.org/2000/svg">
<path d="M12.8848 11.1778L10.2357 9.19092V5.14369C10.2357 4.73675 9.90674 4.40781 9.49979 4.40781C9.09285 4.40781 8.76392 4.73675 8.76392 5.14369V9.55889C8.76392 9.79068 8.87283 10.0093 9.05827 10.1476L12.0017 12.3552C12.1342 12.4545 12.2887 12.5024 12.4425 12.5024C12.6669 12.5024 12.8877 12.4015 13.0319 12.2073C13.2763 11.8827 13.2101 11.4213 12.8848 11.1778Z" fill="#E41F27"/>
<path d="M9.5 0C4.26138 0 0 4.26138 0 9.5C0 14.7386 4.26138 19 9.5 19C14.7386 19 19 14.7386 19 9.5C19 4.26138 14.7386 0 9.5 0ZM9.5 17.5283C5.07378 17.5283 1.47172 13.9262 1.47172 9.5C1.47172 5.07378 5.07378 1.47172 9.5 1.47172C13.927 1.47172 17.5283 5.07378 17.5283 9.5C17.5283 13.9262 13.9262 17.5283 9.5 17.5283Z" fill="#E41F27"/>
</svg>
