<svg width="27" height="27" viewBox="0 0 27 27" fill="none" xmlns="http://www.w3.org/2000/svg">
<path d="M14.9633 13.1552L11.9528 16.1657C11.6439 16.4745 11.1433 16.4746 10.8344 16.1657C10.5255 15.8569 10.5255 15.3562 10.8344 15.0473L13.8449 12.0368C13.113 11.1513 12.5931 10.1485 12.2856 9.0961L0.860028 21.2051C-0.313825 22.458 -0.282296 24.3904 0.93168 25.6044L1.39571 26.0684C2.60974 27.2825 4.54229 27.3138 5.79707 26.1382L17.904 14.7145C16.8516 14.407 15.8488 13.887 14.9633 13.1552Z" fill="#4C4C4C"/>
<path d="M14.9593 2.56093L24.4397 12.0407C23.2887 12.9529 21.8335 13.4975 20.2513 13.4975C16.5242 13.4975 13.5026 10.4759 13.5026 6.74882C13.5026 5.16661 14.0472 3.7119 14.9593 2.56093Z" fill="#4C4C4C"/>
<path d="M27 6.74888C27 8.32375 26.4601 9.77261 25.5564 10.9209L16.0792 1.44376C17.2275 0.540065 18.6764 0.000167847 20.2513 0.000167847C23.9784 0.000167847 27 3.0218 27 6.74888Z" fill="#4C4C4C"/>
</svg>
