<svg width="27" height="27" viewBox="0 0 27 27" fill="none" xmlns="http://www.w3.org/2000/svg">
<path d="M12.87 7.49247C13.2096 7.39544 13.4437 7.08505 13.4437 6.73189V0.801009C13.4437 0.552788 13.3272 0.318964 13.129 0.169515C12.9309 0.0200129 12.674 -0.0278171 12.4354 0.0404211L6.50459 1.73499C6.16498 1.83202 5.93089 2.14241 5.93089 2.49558V12.5679C3.49393 10.8013 -0.0169649 12.5957 1.5586e-05 15.6282C0.206207 20.6114 7.30726 20.6103 7.51287 15.6281V9.02309L12.87 7.49247Z" fill="#4C4C4C"/>
<path d="M26.6854 6.1001C26.4871 5.9506 26.2303 5.90282 25.9917 5.97101L14.1299 9.36009C13.7904 9.45712 13.5563 9.76751 13.5563 10.1207V20.193C11.1193 18.4264 7.60845 20.2209 7.62543 23.2533C7.83162 28.2365 14.9326 28.2355 15.1383 23.2533V16.6482L25.418 13.7111V16.804C22.981 15.0374 19.4702 16.8318 19.4872 19.8642C19.6934 24.8474 26.7944 24.8464 27 19.8642V6.73159C27 6.48337 26.8835 6.2496 26.6854 6.1001Z" fill="#4C4C4C"/>
</svg>
