<svg width="19" height="19" viewBox="0 0 19 19" fill="none" xmlns="http://www.w3.org/2000/svg">
<path d="M7.62059 19C8.86106 19 9.86666 17.9944 9.86666 16.7539C9.86666 15.5134 8.86106 14.5078 7.62059 14.5078C6.38011 14.5078 5.37451 15.5134 5.37451 16.7539C5.37451 17.9944 6.38011 19 7.62059 19Z" fill="white"/>
<path d="M14.1755 14.5079C12.9351 14.5079 11.9294 15.5135 11.9294 16.754C11.9294 17.9944 12.9351 19 14.1755 19C15.416 19 16.4216 17.9944 16.4216 16.754C16.4216 15.5135 15.416 14.5079 14.1755 14.5079Z" fill="white"/>
<path d="M18.0029 12.2157H6.29122L6.06203 10.8864H15.6881C15.9712 10.8873 16.226 10.7144 16.3298 10.4509L18.6217 4.67533C18.761 4.32205 18.5874 3.92275 18.2341 3.78354C18.1532 3.75162 18.0669 3.73537 17.98 3.73564H4.87023L4.32017 0.572802C4.26368 0.238371 3.97173 -0.0049209 3.6326 -0.000175924H0.9969C0.617168 -0.000175924 0.309326 0.307666 0.309326 0.687398C0.309326 1.06713 0.617168 1.37497 0.9969 1.37497H3.05962L5.03067 13.0179C5.08716 13.3523 5.37911 13.5956 5.71824 13.5909H18.0029C18.3826 13.5909 18.6905 13.283 18.6905 12.9033C18.6905 12.5236 18.3826 12.2157 18.0029 12.2157Z" fill="white"/>
</svg>
